<svg width="32" height="32" viewBox="0 0 32 32" fill="none" xmlns="http://www.w3.org/2000/svg">
<path d="M32 16C32 24.8384 24.839 32 16 32C7.16763 32 0 24.832 0 16C0 7.1616 7.16103 0 16 0C24.839 0 32 7.1616 32 16Z" fill="#DD061F"/>
<path d="M18.6713 24.3894H13.4303C12.8671 24.3894 12.4099 24.8599 12.4099 25.4363C12.4099 26.0194 12.8671 26.4898 13.4303 26.4898H18.6713C19.2345 26.4898 19.6916 26.0194 19.6916 25.4363C19.685 24.8599 19.2278 24.3894 18.6713 24.3894Z" fill="white"/>
<path d="M24.0648 8.30209H8.03043C6.99019 8.30209 6.14209 9.17669 6.14209 10.2501V20.1357C6.14209 21.2091 6.98356 22.0837 8.03043 22.0837H24.0648C25.105 22.0837 25.9531 21.2091 25.9531 20.1357V10.2434C25.9531 9.17007 25.105 8.30209 24.0648 8.30209ZM18.4793 15.9151L15.2326 18.5786C14.8086 19.0159 14.0864 18.7045 14.0864 18.0883V12.7679C14.0864 12.1517 14.8086 11.8402 15.2326 12.2775L18.4793 14.9411C18.7377 15.2061 18.7377 15.6434 18.4793 15.9151Z" fill="white"/>
</svg>
